<?xml version="1.0" encoding="UTF-8" standalone="no"?>
<!DOCTYPE svg PUBLIC "-//W3C//DTD SVG 1.1//EN"
 "http://www.w3.org/Graphics/SVG/1.1/DTD/svg11.dtd">
<!-- Generated by graphviz version 2.47.0 (20210316.0004)
 -->
<!-- Title: dependencies Pages: 1 -->
<svg width="504pt" height="284pt"
 viewBox="0.00 0.00 504.00 284.00" xmlns="http://www.w3.org/2000/svg" xmlns:xlink="http://www.w3.org/1999/xlink">
<g id="graph0" class="graph" transform="scale(1 1) rotate(0) translate(4 280)">
<title>dependencies</title>
<polygon fill="white" stroke="transparent" points="-4,4 -4,-280 500,-280 500,4 -4,4"/>
<text text-anchor="start" x="227.01" y="-42.4" font-family="Times-12" font-weight="bold" font-size="14.00">Legend</text>
<polygon fill="#ffffb3" stroke="transparent" points="14,-10 14,-30 34,-30 34,-10 14,-10"/>
<text text-anchor="start" x="37.63" y="-15.4" font-family="Times-12" font-size="14.00"> &#160;Declarations</text>
<polygon fill="#8dd3c7" stroke="transparent" points="127,-10 127,-30 147,-30 147,-10 127,-10"/>
<text text-anchor="start" x="150.73" y="-15.4" font-family="Times-12" font-size="14.00"> &#160;Module</text>
<polygon fill="#80b1d3" stroke="transparent" points="213,-10 213,-30 233,-30 233,-10 213,-10"/>
<text text-anchor="start" x="236.78" y="-15.4" font-family="Times-12" font-size="14.00"> &#160;Bootstrap</text>
<polygon fill="#fdb462" stroke="transparent" points="310,-10 310,-30 330,-30 330,-10 310,-10"/>
<text text-anchor="start" x="333.67" y="-15.4" font-family="Times-12" font-size="14.00"> &#160;Providers</text>
<polygon fill="#fb8072" stroke="transparent" points="406,-10 406,-30 426,-30 426,-10 406,-10"/>
<text text-anchor="start" x="429.73" y="-15.4" font-family="Times-12" font-size="14.00"> &#160;Exports</text>
<g id="clust1" class="cluster">
<title>cluster_ShowdownModule</title>
<polygon fill="none" stroke="black" stroke-dasharray="1,5" points="65,-70 65,-268 431,-268 431,-70 65,-70"/>
</g>
<g id="clust7" class="cluster">
<title>cluster_ShowdownModule_providers</title>
<polygon fill="none" stroke="black" points="221,-78 221,-130 423,-130 423,-78 221,-78"/>
</g>
<g id="clust2" class="cluster">
<title>cluster_ShowdownModule_declarations</title>
<polygon fill="none" stroke="black" points="73,-78 73,-130 213,-130 213,-78 73,-78"/>
</g>
<g id="clust5" class="cluster">
<title>cluster_ShowdownModule_exports</title>
<polygon fill="none" stroke="black" points="162,-208 162,-260 304,-260 304,-208 162,-208"/>
</g>
<!-- DECLARATIONS -->
<g id="node1" class="node">
<title>DECLARATIONS</title>
<polygon fill="#ffffb3" stroke="black" points="204.81,-122 81.19,-122 81.19,-86 204.81,-86 204.81,-122"/>
<text text-anchor="middle" x="143" y="-99.8" font-family="Times,serif" font-size="14.00">DECLARATIONS</text>
</g>
<!-- ShowdownModule -->
<g id="node2" class="node">
<title>ShowdownModule</title>
<polygon fill="#8dd3c7" stroke="black" points="294.05,-187 291.05,-191 270.05,-191 267.05,-187 171.95,-187 171.95,-151 294.05,-151 294.05,-187"/>
<text text-anchor="middle" x="233" y="-164.8" font-family="Times,serif" font-size="14.00">ShowdownModule</text>
</g>
<!-- DECLARATIONS&#45;&gt;ShowdownModule -->
<g id="edge1" class="edge">
<title>DECLARATIONS&#45;&gt;ShowdownModule</title>
<path fill="none" stroke="black" d="M188.19,-122.11C188.19,-122.11 188.19,-140.99 188.19,-140.99"/>
<polygon fill="black" stroke="black" points="184.69,-140.99 188.19,-150.99 191.69,-140.99 184.69,-140.99"/>
</g>
<!-- DECLARATIONS  -->
<g id="node3" class="node">
<title>DECLARATIONS </title>
<polygon fill="#fb8072" stroke="black" points="296.31,-252 169.69,-252 169.69,-216 296.31,-216 296.31,-252"/>
<text text-anchor="middle" x="233" y="-229.8" font-family="Times,serif" font-size="14.00">DECLARATIONS </text>
</g>
<!-- ShowdownModule&#45;&gt;DECLARATIONS  -->
<g id="edge2" class="edge">
<title>ShowdownModule&#45;&gt;DECLARATIONS </title>
<path fill="none" stroke="black" stroke-dasharray="5,2" d="M233,-187.11C233,-187.11 233,-205.99 233,-205.99"/>
<polygon fill="black" stroke="black" points="229.5,-205.99 233,-215.99 236.5,-205.99 229.5,-205.99"/>
</g>
<!-- ShowdownConverter -->
<g id="node4" class="node">
<title>ShowdownConverter</title>
<ellipse fill="#fdb462" stroke="black" cx="322" cy="-104" rx="93.2" ry="18"/>
<text text-anchor="middle" x="322" y="-99.8" font-family="Times,serif" font-size="14.00">ShowdownConverter</text>
</g>
<!-- ShowdownConverter&#45;&gt;ShowdownModule -->
<g id="edge3" class="edge">
<title>ShowdownConverter&#45;&gt;ShowdownModule</title>
<path fill="none" stroke="black" d="M261.59,-117.78C261.59,-117.78 261.59,-140.55 261.59,-140.55"/>
<polygon fill="black" stroke="black" points="258.09,-140.55 261.59,-150.55 265.09,-140.55 258.09,-140.55"/>
</g>
</g>
</svg>
